<?xml version="1.0" standalone="no"?>
<!DOCTYPE svg PUBLIC "-//W3C//DTD SVG 20010904//EN"
 "http://www.w3.org/TR/2001/REC-SVG-20010904/DTD/svg10.dtd">
<svg version="1.0" xmlns="http://www.w3.org/2000/svg"
 width="474.000000pt" height="474.000000pt" viewBox="0 0 474.000000 474.000000"
 preserveAspectRatio="xMidYMid meet">
<metadata>
Created by potrace 1.11, written by Peter Selinger 2001-2013
</metadata>
<g transform="translate(0.000000,474.000000) scale(0.100000,-0.100000)"
fill="#000000" stroke="none">
<path d="M0 2370 l0 -2370 2370 0 2370 0 0 2370 0 2370 -2370 0 -2370 0 0
-2370z m3613 2274 c69 -23 147 -102 176 -179 64 -167 -29 -354 -201 -406 -83
-26 -147 -21 -225 17 -87 42 -158 139 -172 233 l-6 45 -260 62 c-143 34 -261
62 -261 61 -1 -1 -36 -110 -79 -242 -42 -132 -85 -267 -96 -299 -10 -33 -18
-61 -16 -62 1 -2 52 -8 112 -14 281 -27 499 -91 721 -209 82 -45 92 -47 110
-34 41 32 137 71 189 78 32 4 79 1 112 -5 305 -63 411 -428 188 -645 l-55 -54
0 -99 c0 -246 -120 -469 -352 -652 -66 -52 -213 -138 -300 -176 -38 -15 -68
-31 -68 -35 0 -3 10 -11 23 -16 52 -24 148 -116 195 -188 164 -249 162 -596
-3 -845 -60 -90 -122 -144 -230 -200 l-87 -45 -29 -79 c-16 -44 -29 -81 -29
-82 0 -1 31 -4 69 -6 87 -6 197 -56 259 -117 77 -75 117 -199 93 -289 -21 -78
57 -72 -1013 -72 -953 0 -957 0 -976 21 -42 44 -45 175 -6 251 60 116 204 204
345 209 27 1 49 5 49 8 0 3 -13 41 -29 85 -27 76 -29 79 -74 96 -191 73 -330
251 -379 486 -61 296 52 601 279 752 29 19 53 37 53 39 0 2 -17 11 -38 19
-279 116 -508 308 -612 514 -52 103 -72 186 -76 309 l-4 115 -37 30 c-55 45
-78 74 -110 136 -25 50 -28 65 -28 160 0 96 2 110 30 163 38 77 126 158 202
187 114 44 258 27 352 -40 l40 -30 103 54 c241 127 444 182 798 214 l75 7 17
50 c9 28 62 191 118 363 88 273 104 314 125 322 16 6 59 0 147 -21 365 -87
461 -109 467 -109 4 0 13 11 19 24 19 43 79 101 129 126 84 42 157 46 256 14z"/>
<path d="M3430 4524 c-74 -32 -113 -90 -113 -169 0 -160 186 -242 307 -136 63
56 74 177 22 246 -51 67 -142 91 -216 59z"/>
<path d="M2160 3733 c-525 -57 -965 -321 -1087 -653 -25 -67 -28 -88 -28 -200
0 -112 3 -131 27 -188 43 -102 89 -171 168 -252 283 -285 802 -444 1315 -401
297 25 516 91 730 219 228 136 371 304 420 489 21 77 20 223 -1 293 -103 350
-530 621 -1084 690 -79 9 -381 12 -460 3z m-196 -1239 c114 -87 250 -120 466
-111 183 7 287 39 384 116 44 35 62 38 94 15 36 -25 29 -70 -15 -112 -51 -48
-181 -107 -278 -128 -111 -23 -352 -23 -460 0 -98 21 -227 81 -278 128 -44 42
-51 87 -15 112 33 23 50 20 102 -20z"/>
<path d="M1028 3558 c-46 -12 -123 -78 -147 -127 -41 -81 -37 -160 13 -243 40
-68 56 -71 80 -11 32 77 110 183 195 267 74 72 80 80 64 92 -42 31 -135 41
-205 22z"/>
<path d="M3566 3556 c-61 -23 -63 -31 -20 -68 95 -81 178 -187 231 -291 39
-77 44 -77 89 -1 68 116 26 271 -92 340 -55 33 -150 42 -208 20z"/>
<path d="M1767 1953 c-32 -199 -32 -522 -2 -763 19 -152 75 -383 121 -505 70
-182 177 -348 275 -425 l51 -40 167 0 168 0 47 36 c183 139 335 479 397 887
35 227 36 682 3 823 l-6 21 -91 -23 c-290 -73 -716 -73 -1009 1 -53 14 -101
25 -106 25 -5 0 -12 -17 -15 -37z"/>
<path d="M1571 1821 c-100 -108 -151 -250 -151 -420 0 -195 79 -370 210 -466
28 -20 53 -35 55 -33 3 2 0 20 -5 39 -47 168 -75 521 -61 764 4 88 7 162 5
164 -3 3 -26 -19 -53 -48z"/>
<path d="M3137 1818 c4 -29 8 -152 7 -273 -1 -219 -16 -388 -49 -545 -22 -105
-22 -106 29 -71 59 41 107 99 150 180 46 89 66 174 66 291 0 117 -19 209 -58
286 -34 67 -104 159 -133 175 -19 10 -19 8 -12 -43z"/>
<path d="M1717 440 c-70 -12 -132 -46 -177 -97 -35 -40 -61 -105 -48 -119 3
-2 121 -3 262 -2 l257 3 -48 61 c-27 33 -61 81 -76 107 -17 29 -35 47 -46 47
-10 0 -31 2 -47 4 -16 2 -50 1 -77 -4z"/>
<path d="M2928 441 c-19 -4 -39 -25 -69 -71 -23 -36 -57 -84 -76 -107 l-34
-43 262 0 262 0 -6 36 c-14 86 -97 157 -211 181 -65 14 -86 14 -128 4z"/>
</g>
</svg>
